# xmcd
#
# Track frame offsets:
#   150
#   13427
#   32756
#   47600
#   58979
#   70929
#   84601
#   99694
#   113959
#   131836
#   142147
#   154660
#   173915
#   187715
#
# Disc length: 2725 seconds
#
# Revision: 0
# Processed by: cddbd v1.5.1PL0 Copyright (c) Steve Scherf et al.
# Submitted via: uFREEDB ActiveX Control 1.5
#
DISCID=cb0aa30e
DTITLE=Joaquim and Manuel - Foto Show em Portugal
DYEAR=2001
DGENRE=Country
TTITLE0=Coração Coroa
TTITLE1=Chora, Chora Coração
TTITLE2=Não Desligue o Telefone
TTITLE3=Brigas de Casais
TTITLE4=Companheira Solidão
TTITLE5=Só me Resta Morrer De Saudade
TTITLE6=Me Coloque em Você
TTITLE7=Sonho de Carreiro
TTITLE8=Passo a Passo
TTITLE9=Dias PAres E Dias Impares
TTITLE10=Eu Prciso De Você
TTITLE11=O Quanto Te Amo E Te Quero
TTITLE12=O Homem Apaixonado
TTITLE13=Tuas Virtudes e Defeitos
EXTD=
EXTT0=
EXTT1=
EXTT2=
EXTT3=
EXTT4=
EXTT5=
EXTT6=
EXTT7=
EXTT8=
EXTT9=
EXTT10=
EXTT11=
EXTT12=
EXTT13=
PLAYORDER=
